<svg width="60" height="60" viewBox="0 0 60 60" fill="none" xmlns="http://www.w3.org/2000/svg">
<path d="M50 20L35 6.85002C33.6249 5.62013 31.8448 4.94019 30 4.94019C28.1552 4.94019 26.375 5.62013 25 6.85002L9.99999 20C9.20591 20.7102 8.57224 21.5814 8.14117 22.5556C7.7101 23.5298 7.49152 24.5847 7.49999 25.65V47.5C7.49999 49.4891 8.29017 51.3968 9.69669 52.8033C11.1032 54.2098 13.0109 55 15 55H45C46.9891 55 48.8968 54.2098 50.3033 52.8033C51.7098 51.3968 52.5 49.4891 52.5 47.5V25.625C52.5049 24.5639 52.2846 23.5139 51.8537 22.5442C51.4227 21.5746 50.7909 20.7074 50 20ZM35 50H25V37.5C25 36.837 25.2634 36.2011 25.7322 35.7323C26.2011 35.2634 26.837 35 27.5 35H32.5C33.163 35 33.7989 35.2634 34.2678 35.7323C34.7366 36.2011 35 36.837 35 37.5V50ZM47.5 47.5C47.5 48.1631 47.2366 48.7989 46.7678 49.2678C46.2989 49.7366 45.663 50 45 50H40V37.5C40 35.5109 39.2098 33.6032 37.8033 32.1967C36.3968 30.7902 34.4891 30 32.5 30H27.5C25.5109 30 23.6032 30.7902 22.1967 32.1967C20.7902 33.6032 20 35.5109 20 37.5V50H15C14.337 50 13.7011 49.7366 13.2322 49.2678C12.7634 48.7989 12.5 48.1631 12.5 47.5V25.625C12.5004 25.2701 12.5765 24.9193 12.723 24.596C12.8696 24.2727 13.0833 23.9843 13.35 23.75L28.35 10.625C28.8062 10.2242 29.3927 10.0032 30 10.0032C30.6073 10.0032 31.1938 10.2242 31.65 10.625L46.65 23.75C46.9167 23.9843 47.1304 24.2727 47.2769 24.596C47.4235 24.9193 47.4995 25.2701 47.5 25.625V47.5Z" fill="#E4E1FF"/>
</svg>
