<svg width="60" height="60" viewBox="0 0 60 60" fill="none" xmlns="http://www.w3.org/2000/svg">
<path d="M52.5 27.5C51.837 27.5 51.2011 27.7634 50.7322 28.2322C50.2634 28.7011 50 29.337 50 30C50.0298 34.6826 48.4257 39.229 45.4641 42.8561C42.5026 46.4833 38.3688 48.9642 33.7749 49.8715C29.181 50.7789 24.4145 50.0558 20.2963 47.827C16.1781 45.5981 12.966 42.0029 11.2133 37.6606C9.46061 33.3183 9.27698 28.5008 10.6941 24.0377C12.1111 19.5746 15.0402 15.7453 18.9768 13.2094C22.9133 10.6736 27.611 9.58978 32.2607 10.1448C36.9103 10.6998 41.2209 12.8588 44.45 16.25H38.45C37.787 16.25 37.1511 16.5134 36.6822 16.9822C36.2134 17.4511 35.95 18.087 35.95 18.75C35.95 19.413 36.2134 20.0489 36.6822 20.5178C37.1511 20.9866 37.787 21.25 38.45 21.25H49.775C50.438 21.25 51.0739 20.9866 51.5428 20.5178C52.0116 20.0489 52.275 19.413 52.275 18.75V7.5C52.275 6.83696 52.0116 6.20107 51.5428 5.73223C51.0739 5.26339 50.438 5 49.775 5C49.112 5 48.4761 5.26339 48.0072 5.73223C47.5384 6.20107 47.275 6.83696 47.275 7.5V11.925C43.1117 7.94515 37.7019 5.52488 31.96 5.07332C26.2182 4.62176 20.4966 6.16661 15.7623 9.44673C11.028 12.7268 7.57153 17.541 5.97708 23.0755C4.38263 28.6099 4.74803 34.5252 7.01153 39.8213C9.27502 45.1175 13.2978 49.4696 18.3997 52.1421C23.5017 54.8146 29.37 55.6435 35.0126 54.4887C40.6552 53.3339 45.726 50.2662 49.3678 45.8042C53.0097 41.3422 54.9992 35.7596 55 30C55 29.337 54.7366 28.7011 54.2678 28.2322C53.7989 27.7634 53.1631 27.5 52.5 27.5Z" fill="#E4E1FF"/>
</svg>
